<svg xmlns="http://www.w3.org/2000/svg" xmlns:xlink="http://www.w3.org/1999/xlink" width="500" zoomAndPan="magnify" viewBox="0 0 375 374.999991" height="500" preserveAspectRatio="xMidYMid meet" version="1.0"><defs><g/><clipPath id="057fb1531c"><path d="M 128.816406 100.101562 L 245.816406 100.101562 L 245.816406 226.101562 L 128.816406 226.101562 Z M 128.816406 100.101562 " clip-rule="nonzero"/></clipPath></defs><rect x="-37.5" width="450" fill="#ffffff" y="-37.499999" height="449.999989" fill-opacity="1"/><rect x="-37.5" width="450" fill="#ffffff" y="-37.499999" height="449.999989" fill-opacity="1"/><g clip-path="url(#057fb1531c)"><path fill="#0967aa" d="M 187.496094 100.101562 C 203.703125 100.101562 218.371094 106.671875 228.988281 117.289062 C 239.609375 127.910156 246.179688 142.578125 246.179688 158.78125 C 246.179688 166.753906 244.578125 174.367188 241.6875 181.316406 C 238.957031 187.871094 235.066406 193.828125 230.277344 198.929688 L 233.304688 221.394531 C 233.609375 223.652344 232.027344 225.726562 229.769531 226.027344 C 228.757812 226.164062 227.785156 225.921875 226.988281 225.410156 L 207.4375 213.972656 C 204.589844 215.003906 201.652344 215.820312 198.632812 216.402344 C 195.003906 217.097656 191.28125 217.464844 187.496094 217.464844 C 171.292969 217.464844 156.621094 210.898438 146 200.277344 C 135.382812 189.65625 128.816406 174.988281 128.816406 158.78125 C 128.816406 142.578125 135.382812 127.910156 146 117.289062 C 156.621094 106.671875 171.292969 100.101562 187.496094 100.101562 Z M 155.914062 172.277344 C 156.804688 174.375 155.828125 176.792969 153.730469 177.6875 C 151.636719 178.578125 149.214844 177.601562 148.324219 175.507812 C 146.171875 170.46875 145.035156 165.097656 144.917969 159.691406 C 144.800781 154.300781 145.707031 148.890625 147.640625 143.761719 C 148.441406 141.628906 150.820312 140.550781 152.953125 141.355469 C 155.082031 142.15625 156.160156 144.535156 155.355469 146.667969 C 153.792969 150.820312 153.058594 155.191406 153.15625 159.53125 C 153.25 163.863281 154.167969 168.191406 155.914062 172.277344 Z M 163.21875 134.503906 C 161.601562 136.117188 158.984375 136.117188 157.371094 134.503906 C 155.753906 132.890625 155.753906 130.269531 157.371094 128.65625 C 164.175781 121.851562 172.863281 117.75 181.941406 116.554688 C 191.007812 115.363281 200.453125 117.078125 208.796875 121.898438 C 208.875 121.941406 208.949219 121.988281 209.023438 122.035156 C 213.828125 124.851562 217.980469 128.542969 221.296875 132.859375 C 224.667969 137.253906 227.183594 142.308594 228.644531 147.761719 C 229.234375 149.960938 227.925781 152.226562 225.722656 152.816406 C 223.519531 153.402344 221.253906 152.09375 220.667969 149.890625 C 219.488281 145.488281 217.457031 141.410156 214.738281 137.867188 C 212.0625 134.378906 208.726562 131.40625 204.882812 129.152344 C 204.808594 129.117188 204.738281 129.078125 204.664062 129.035156 C 197.933594 125.148438 190.316406 123.765625 183.007812 124.726562 C 175.71875 125.6875 168.722656 129 163.21875 134.503906 Z M 220.667969 167.675781 C 221.257812 165.472656 223.519531 164.164062 225.722656 164.75 C 227.925781 165.339844 229.234375 167.601562 228.644531 169.808594 C 226.148438 179.117188 220.679688 187.011719 213.417969 192.582031 C 209.058594 195.925781 204.058594 198.429688 198.671875 199.894531 L 198.671875 145.386719 C 198.671875 143.101562 200.523438 141.253906 202.808594 141.253906 C 205.089844 141.253906 206.941406 143.101562 206.941406 145.386719 L 206.941406 187.09375 C 207.441406 186.753906 207.929688 186.394531 208.414062 186.023438 C 214.253906 181.546875 218.65625 175.183594 220.667969 167.675781 Z M 191.632812 201.1875 C 190.269531 201.320312 188.890625 201.386719 187.496094 201.386719 C 186.109375 201.386719 184.730469 201.320312 183.363281 201.183594 L 183.363281 158.78125 C 183.363281 156.5 185.214844 154.648438 187.496094 154.648438 C 189.777344 154.648438 191.632812 156.5 191.632812 158.78125 Z M 176.320312 199.886719 C 174.582031 199.410156 172.875 198.828125 171.207031 198.136719 C 166.0625 196.003906 161.351562 192.886719 157.371094 188.90625 C 155.757812 187.292969 155.757812 184.679688 157.371094 183.0625 C 158.984375 181.449219 161.601562 181.449219 163.21875 183.0625 C 164.71875 184.566406 166.339844 185.910156 168.050781 187.09375 L 168.050781 167.972656 C 168.050781 165.6875 169.902344 163.835938 172.1875 163.835938 C 174.46875 163.835938 176.320312 165.6875 176.320312 167.972656 Z M 223.144531 123.136719 C 214.023438 114.011719 201.417969 108.371094 187.496094 108.371094 C 173.578125 108.371094 160.972656 114.011719 151.847656 123.136719 C 142.726562 132.257812 137.082031 144.863281 137.082031 158.78125 C 137.082031 172.703125 142.726562 185.308594 151.847656 194.433594 C 160.972656 203.554688 173.578125 209.195312 187.496094 209.195312 C 190.800781 209.195312 194.003906 208.886719 197.082031 208.292969 C 200.273438 207.679688 203.347656 206.769531 206.273438 205.59375 L 206.277344 205.597656 C 207.417969 205.140625 208.75 205.199219 209.890625 205.867188 L 224.007812 214.121094 L 221.839844 198.042969 C 221.671875 196.808594 222.066406 195.515625 223.015625 194.570312 C 227.703125 189.921875 231.484375 184.347656 234.0625 178.148438 C 236.542969 172.203125 237.910156 165.660156 237.910156 158.78125 C 237.910156 144.863281 232.269531 132.257812 223.144531 123.136719 Z M 223.144531 123.136719 " fill-opacity="1" fill-rule="evenodd"/></g><g fill="#ff3131" fill-opacity="1"><g transform="translate(105.363461, 268.074606)"><g><path d="M 11.953125 0 L 6.078125 0 L 6.078125 -16.953125 L 0.765625 -16.953125 L 0.765625 -21.765625 L 17.25 -21.765625 L 17.25 -16.953125 L 11.953125 -16.953125 Z M 11.953125 0 "/></g></g></g><g fill="#0967aa" fill-opacity="1"><g transform="translate(123.375179, 268.074606)"><g><path d="M 20.828125 -11.34375 C 20.828125 -7.707031 19.828125 -4.90625 17.828125 -2.9375 C 15.828125 -0.976562 13.015625 0 9.390625 0 L 2.359375 0 L 2.359375 -21.765625 L 9.890625 -21.765625 C 13.378906 -21.765625 16.070312 -20.867188 17.96875 -19.078125 C 19.875 -17.296875 20.828125 -14.71875 20.828125 -11.34375 Z M 14.71875 -11.140625 C 14.71875 -13.128906 14.320312 -14.601562 13.53125 -15.5625 C 12.75 -16.53125 11.550781 -17.015625 9.9375 -17.015625 L 8.234375 -17.015625 L 8.234375 -4.828125 L 9.546875 -4.828125 C 11.328125 -4.828125 12.632812 -5.34375 13.46875 -6.375 C 14.300781 -7.414062 14.71875 -9.003906 14.71875 -11.140625 Z M 14.71875 -11.140625 "/></g></g></g><g fill="#ff3131" fill-opacity="1"><g transform="translate(145.746271, 268.074606)"><g><path d="M 11.953125 0 L 6.078125 0 L 6.078125 -16.953125 L 0.765625 -16.953125 L 0.765625 -21.765625 L 17.25 -21.765625 L 17.25 -16.953125 L 11.953125 -16.953125 Z M 11.953125 0 "/></g></g></g><g fill="#0967aa" fill-opacity="1"><g transform="translate(163.757989, 268.074606)"><g><path d="M 20.859375 -21.765625 L 20.859375 -8.65625 C 20.859375 -5.8125 20.050781 -3.609375 18.4375 -2.046875 C 16.820312 -0.484375 14.5 0.296875 11.46875 0.296875 C 8.5 0.296875 6.21875 -0.457031 4.625 -1.96875 C 3.03125 -3.488281 2.234375 -5.675781 2.234375 -8.53125 L 2.234375 -21.765625 L 8.140625 -21.765625 L 8.140625 -8.984375 C 8.140625 -7.453125 8.425781 -6.335938 9 -5.640625 C 9.582031 -4.941406 10.429688 -4.59375 11.546875 -4.59375 C 12.753906 -4.59375 13.625 -4.9375 14.15625 -5.625 C 14.695312 -6.320312 14.96875 -7.453125 14.96875 -9.015625 L 14.96875 -21.765625 Z M 20.859375 -21.765625 "/></g></g></g><g fill="#000000" fill-opacity="1"><g transform="translate(186.832206, 268.074606)"><g/></g></g><g fill="#ff3131" fill-opacity="1"><g transform="translate(194.754081, 268.074606)"><g><path d="M 8.140625 0 L 2.359375 0 L 2.359375 -21.765625 L 15.21875 -21.765625 L 15.21875 -17.046875 L 8.140625 -17.046875 L 8.140625 -12.890625 L 14.65625 -12.890625 L 14.65625 -8.171875 L 8.140625 -8.171875 Z M 8.140625 0 "/></g></g></g><g fill="#0967aa" fill-opacity="1"><g transform="translate(211.195486, 268.074606)"><g><path d="M 2.359375 0 L 2.359375 -21.765625 L 8.265625 -21.765625 L 8.265625 0 Z M 2.359375 0 "/></g></g></g><g fill="#ff3131" fill-opacity="1"><g transform="translate(221.812676, 268.074606)"><g><path d="M 23.078125 0 L 15.359375 0 L 7.40625 -15.328125 L 7.28125 -15.328125 C 7.46875 -12.921875 7.5625 -11.082031 7.5625 -9.8125 L 7.5625 0 L 2.359375 0 L 2.359375 -21.765625 L 10.03125 -21.765625 L 17.953125 -6.640625 L 18.046875 -6.640625 C 17.898438 -8.828125 17.828125 -10.585938 17.828125 -11.921875 L 17.828125 -21.765625 L 23.078125 -21.765625 Z M 23.078125 0 "/></g></g></g><g fill="#0967aa" fill-opacity="1"><g transform="translate(247.242362, 268.074606)"><g><path d="M 20.828125 -11.34375 C 20.828125 -7.707031 19.828125 -4.90625 17.828125 -2.9375 C 15.828125 -0.976562 13.015625 0 9.390625 0 L 2.359375 0 L 2.359375 -21.765625 L 9.890625 -21.765625 C 13.378906 -21.765625 16.070312 -20.867188 17.96875 -19.078125 C 19.875 -17.296875 20.828125 -14.71875 20.828125 -11.34375 Z M 14.71875 -11.140625 C 14.71875 -13.128906 14.320312 -14.601562 13.53125 -15.5625 C 12.75 -16.53125 11.550781 -17.015625 9.9375 -17.015625 L 8.234375 -17.015625 L 8.234375 -4.828125 L 9.546875 -4.828125 C 11.328125 -4.828125 12.632812 -5.34375 13.46875 -6.375 C 14.300781 -7.414062 14.71875 -9.003906 14.71875 -11.140625 Z M 14.71875 -11.140625 "/></g></g></g></svg>