<svg xmlns="http://www.w3.org/2000/svg" xmlns:xlink="http://www.w3.org/1999/xlink" width="800" zoomAndPan="magnify" viewBox="0 0 600 299.999988" height="400" preserveAspectRatio="xMidYMid meet" version="1.0"><defs><g/><clipPath id="3c07e47394"><path d="M 253.050781 80.082031 L 346.800781 80.082031 L 346.800781 180.582031 L 253.050781 180.582031 Z M 253.050781 80.082031 " clip-rule="nonzero"/></clipPath></defs><g clip-path="url(#3c07e47394)"><path fill="#0967aa" d="M 299.996094 80.082031 C 312.960938 80.082031 324.695312 85.335938 333.191406 93.832031 C 341.6875 102.328125 346.941406 114.0625 346.941406 127.023438 C 346.941406 133.402344 345.660156 139.492188 343.347656 145.054688 C 341.164062 150.296875 338.050781 155.058594 334.222656 159.140625 L 336.644531 177.113281 C 336.886719 178.917969 335.621094 180.578125 333.8125 180.820312 C 333.007812 180.929688 332.226562 180.734375 331.589844 180.324219 L 315.949219 171.175781 C 313.671875 172 311.320312 172.652344 308.90625 173.117188 C 306.003906 173.675781 303.023438 173.96875 299.996094 173.96875 C 287.035156 173.96875 275.296875 168.714844 266.800781 160.21875 C 258.308594 151.726562 253.054688 139.988281 253.054688 127.023438 C 253.054688 114.0625 258.308594 102.328125 266.800781 93.832031 C 275.296875 85.335938 287.035156 80.082031 299.996094 80.082031 Z M 274.730469 137.820312 C 275.441406 139.5 274.664062 141.433594 272.984375 142.148438 C 271.308594 142.859375 269.371094 142.082031 268.660156 140.402344 C 266.9375 136.375 266.027344 132.078125 265.933594 127.753906 C 265.839844 123.4375 266.566406 119.109375 268.113281 115.007812 C 268.753906 113.304688 270.65625 112.441406 272.363281 113.082031 C 274.066406 113.726562 274.929688 115.628906 274.285156 117.335938 C 273.035156 120.65625 272.449219 124.152344 272.523438 127.625 C 272.597656 131.089844 273.335938 134.554688 274.730469 137.820312 Z M 280.574219 107.601562 C 279.28125 108.894531 277.1875 108.894531 275.898438 107.601562 C 274.605469 106.3125 274.605469 104.214844 275.898438 102.925781 C 281.34375 97.480469 288.292969 94.199219 295.554688 93.242188 C 302.804688 92.289062 310.363281 93.664062 317.039062 97.519531 C 317.101562 97.554688 317.160156 97.589844 317.21875 97.628906 C 321.0625 99.882812 324.386719 102.835938 327.035156 106.289062 C 329.734375 109.804688 331.746094 113.847656 332.917969 118.207031 C 333.386719 119.96875 332.339844 121.78125 330.578125 122.25 C 328.816406 122.722656 327.003906 121.675781 326.53125 119.914062 C 325.589844 116.390625 323.964844 113.128906 321.789062 110.292969 C 319.648438 107.503906 316.980469 105.125 313.90625 103.324219 C 313.847656 103.292969 313.789062 103.261719 313.730469 103.226562 C 308.347656 100.117188 302.25 99.011719 296.40625 99.78125 C 290.574219 100.550781 284.976562 103.199219 280.574219 107.601562 Z M 326.53125 134.140625 C 327.003906 132.378906 328.816406 131.328125 330.578125 131.800781 C 332.339844 132.269531 333.386719 134.082031 332.917969 135.84375 C 330.917969 143.292969 326.542969 149.605469 320.734375 154.0625 C 317.246094 156.738281 313.246094 158.742188 308.9375 159.914062 L 308.9375 116.308594 C 308.9375 114.480469 310.417969 113 312.246094 113 C 314.070312 113 315.554688 114.480469 315.554688 116.308594 L 315.554688 149.675781 C 315.953125 149.398438 316.34375 149.113281 316.730469 148.816406 C 321.402344 145.234375 324.925781 140.144531 326.53125 134.140625 Z M 303.304688 160.949219 C 302.214844 161.054688 301.109375 161.109375 299.996094 161.109375 C 298.890625 161.109375 297.785156 161.054688 296.691406 160.945312 L 296.691406 127.023438 C 296.691406 125.199219 298.171875 123.71875 299.996094 123.71875 C 301.824219 123.71875 303.304688 125.199219 303.304688 127.023438 Z M 291.054688 159.90625 C 289.667969 159.527344 288.300781 159.058594 286.96875 158.507812 C 282.851562 156.800781 279.082031 154.308594 275.898438 151.125 C 274.609375 149.832031 274.609375 147.742188 275.898438 146.449219 C 277.1875 145.15625 279.28125 145.15625 280.574219 146.449219 C 281.773438 147.648438 283.070312 148.726562 284.441406 149.671875 L 284.441406 134.375 C 284.441406 132.550781 285.921875 131.066406 287.75 131.066406 C 289.574219 131.066406 291.054688 132.550781 291.054688 134.375 Z M 328.515625 98.507812 C 321.21875 91.210938 311.132812 86.695312 299.996094 86.695312 C 288.859375 86.695312 278.777344 91.210938 271.480469 98.507812 C 264.183594 105.804688 259.667969 115.890625 259.667969 127.023438 C 259.667969 138.164062 264.183594 148.246094 271.480469 155.542969 C 278.777344 162.839844 288.859375 167.355469 299.996094 167.355469 C 302.640625 167.355469 305.203125 167.105469 307.667969 166.632812 C 310.21875 166.140625 312.675781 165.414062 315.019531 164.472656 L 315.019531 164.476562 C 315.933594 164.109375 317 164.15625 317.914062 164.691406 L 329.203125 171.296875 L 327.46875 158.433594 C 327.339844 157.445312 327.652344 156.410156 328.414062 155.65625 C 332.164062 151.933594 335.183594 147.476562 337.25 142.519531 C 339.230469 137.757812 340.324219 132.527344 340.324219 127.023438 C 340.324219 115.890625 335.8125 105.804688 328.515625 98.507812 Z M 328.515625 98.507812 " fill-opacity="1" fill-rule="evenodd"/></g><g fill="#ff3131" fill-opacity="1"><g transform="translate(234.29075, 214.459684)"><g><path d="M 9.5625 0 L 4.859375 0 L 4.859375 -13.5625 L 0.609375 -13.5625 L 0.609375 -17.40625 L 13.796875 -17.40625 L 13.796875 -13.5625 L 9.5625 -13.5625 Z M 9.5625 0 "/></g></g></g><g fill="#0967aa" fill-opacity="1"><g transform="translate(248.700124, 214.459684)"><g><path d="M 16.65625 -9.078125 C 16.65625 -6.171875 15.851562 -3.929688 14.25 -2.359375 C 12.65625 -0.785156 10.410156 0 7.515625 0 L 1.875 0 L 1.875 -17.40625 L 7.90625 -17.40625 C 10.695312 -17.40625 12.851562 -16.691406 14.375 -15.265625 C 15.894531 -13.835938 16.65625 -11.773438 16.65625 -9.078125 Z M 11.78125 -8.90625 C 11.78125 -10.5 11.460938 -11.679688 10.828125 -12.453125 C 10.203125 -13.222656 9.242188 -13.609375 7.953125 -13.609375 L 6.59375 -13.609375 L 6.59375 -3.859375 L 7.640625 -3.859375 C 9.066406 -3.859375 10.113281 -4.269531 10.78125 -5.09375 C 11.445312 -5.925781 11.78125 -7.195312 11.78125 -8.90625 Z M 11.78125 -8.90625 "/></g></g></g><g fill="#ff3131" fill-opacity="1"><g transform="translate(266.596998, 214.459684)"><g><path d="M 9.5625 0 L 4.859375 0 L 4.859375 -13.5625 L 0.609375 -13.5625 L 0.609375 -17.40625 L 13.796875 -17.40625 L 13.796875 -13.5625 L 9.5625 -13.5625 Z M 9.5625 0 "/></g></g></g><g fill="#0967aa" fill-opacity="1"><g transform="translate(281.006372, 214.459684)"><g><path d="M 16.6875 -17.40625 L 16.6875 -6.9375 C 16.6875 -4.65625 16.039062 -2.890625 14.75 -1.640625 C 13.457031 -0.390625 11.597656 0.234375 9.171875 0.234375 C 6.796875 0.234375 4.96875 -0.367188 3.6875 -1.578125 C 2.414062 -2.796875 1.78125 -4.546875 1.78125 -6.828125 L 1.78125 -17.40625 L 6.515625 -17.40625 L 6.515625 -7.1875 C 6.515625 -5.957031 6.742188 -5.066406 7.203125 -4.515625 C 7.660156 -3.960938 8.335938 -3.6875 9.234375 -3.6875 C 10.203125 -3.6875 10.898438 -3.957031 11.328125 -4.5 C 11.765625 -5.050781 11.984375 -5.957031 11.984375 -7.21875 L 11.984375 -17.40625 Z M 16.6875 -17.40625 "/></g></g></g><g fill="#000000" fill-opacity="1"><g transform="translate(299.465745, 214.459684)"><g/></g></g><g fill="#ff3131" fill-opacity="1"><g transform="translate(305.803245, 214.459684)"><g><path d="M 6.515625 0 L 1.875 0 L 1.875 -17.40625 L 12.171875 -17.40625 L 12.171875 -13.640625 L 6.515625 -13.640625 L 6.515625 -10.3125 L 11.734375 -10.3125 L 11.734375 -6.53125 L 6.515625 -6.53125 Z M 6.515625 0 "/></g></g></g><g fill="#0967aa" fill-opacity="1"><g transform="translate(318.956369, 214.459684)"><g><path d="M 1.875 0 L 1.875 -17.40625 L 6.609375 -17.40625 L 6.609375 0 Z M 1.875 0 "/></g></g></g><g fill="#ff3131" fill-opacity="1"><g transform="translate(327.450121, 214.459684)"><g><path d="M 18.453125 0 L 12.296875 0 L 5.9375 -12.265625 L 5.828125 -12.265625 C 5.972656 -10.335938 6.046875 -8.863281 6.046875 -7.84375 L 6.046875 0 L 1.875 0 L 1.875 -17.40625 L 8.03125 -17.40625 L 14.359375 -5.3125 L 14.4375 -5.3125 C 14.320312 -7.0625 14.265625 -8.472656 14.265625 -9.546875 L 14.265625 -17.40625 L 18.453125 -17.40625 Z M 18.453125 0 "/></g></g></g><g fill="#0967aa" fill-opacity="1"><g transform="translate(347.793869, 214.459684)"><g><path d="M 16.65625 -9.078125 C 16.65625 -6.171875 15.851562 -3.929688 14.25 -2.359375 C 12.65625 -0.785156 10.410156 0 7.515625 0 L 1.875 0 L 1.875 -17.40625 L 7.90625 -17.40625 C 10.695312 -17.40625 12.851562 -16.691406 14.375 -15.265625 C 15.894531 -13.835938 16.65625 -11.773438 16.65625 -9.078125 Z M 11.78125 -8.90625 C 11.78125 -10.5 11.460938 -11.679688 10.828125 -12.453125 C 10.203125 -13.222656 9.242188 -13.609375 7.953125 -13.609375 L 6.59375 -13.609375 L 6.59375 -3.859375 L 7.640625 -3.859375 C 9.066406 -3.859375 10.113281 -4.269531 10.78125 -5.09375 C 11.445312 -5.925781 11.78125 -7.195312 11.78125 -8.90625 Z M 11.78125 -8.90625 "/></g></g></g></svg>