<svg xmlns="http://www.w3.org/2000/svg" xmlns:xlink="http://www.w3.org/1999/xlink" width="800" zoomAndPan="magnify" viewBox="0 0 600 299.999988" height="400" preserveAspectRatio="xMidYMid meet" version="1.0"><defs><g/><clipPath id="ae649b6c89"><path d="M 19.441406 62.011719 L 183.691406 62.011719 L 183.691406 238 L 19.441406 238 Z M 19.441406 62.011719 " clip-rule="nonzero"/></clipPath></defs><g clip-path="url(#ae649b6c89)"><path fill="#0967aa" d="M 101.417969 62.011719 C 124.058594 62.011719 144.550781 71.1875 159.382812 86.019531 C 174.21875 100.859375 183.394531 121.351562 183.394531 143.988281 C 183.394531 155.125 181.160156 165.757812 177.121094 175.46875 C 173.304688 184.625 167.871094 192.941406 161.183594 200.070312 L 165.414062 231.453125 C 165.835938 234.609375 163.625 237.503906 160.472656 237.929688 C 159.0625 238.121094 157.699219 237.777344 156.585938 237.0625 L 129.273438 221.089844 C 125.300781 222.527344 121.191406 223.664062 116.976562 224.476562 C 111.90625 225.453125 106.703125 225.964844 101.417969 225.964844 C 78.78125 225.964844 58.289062 216.789062 43.453125 201.953125 C 28.621094 187.117188 19.445312 166.625 19.445312 143.988281 C 19.445312 121.351562 28.621094 100.859375 43.453125 86.019531 C 58.289062 71.1875 78.78125 62.011719 101.417969 62.011719 Z M 57.296875 162.839844 C 58.542969 165.769531 57.179688 169.148438 54.25 170.398438 C 51.324219 171.640625 47.9375 170.277344 46.695312 167.347656 C 43.6875 160.316406 42.097656 152.808594 41.9375 145.257812 C 41.773438 137.722656 43.039062 130.164062 45.742188 123 C 46.863281 120.027344 50.183594 118.519531 53.160156 119.640625 C 56.140625 120.761719 57.644531 124.085938 56.523438 127.066406 C 54.335938 132.863281 53.3125 138.96875 53.445312 145.035156 C 53.574219 151.085938 54.859375 157.132812 57.296875 162.839844 Z M 67.5 110.070312 C 65.246094 112.324219 61.589844 112.324219 59.332031 110.070312 C 57.078125 107.816406 57.078125 104.15625 59.332031 101.902344 C 68.84375 92.394531 80.976562 86.667969 93.660156 84.996094 C 106.324219 83.332031 119.519531 85.726562 131.175781 92.460938 C 131.285156 92.523438 131.386719 92.589844 131.488281 92.652344 C 138.203125 96.585938 144.007812 101.742188 148.632812 107.773438 C 153.347656 113.914062 156.859375 120.972656 158.902344 128.589844 C 159.726562 131.664062 157.894531 134.828125 154.820312 135.652344 C 151.742188 136.472656 148.578125 134.644531 147.757812 131.566406 C 146.109375 125.414062 143.273438 119.71875 139.476562 114.769531 C 135.738281 109.894531 131.074219 105.742188 125.707031 102.597656 C 125.605469 102.542969 125.503906 102.492188 125.402344 102.429688 C 116 97 105.355469 95.070312 95.148438 96.410156 C 84.964844 97.753906 75.191406 102.382812 67.5 110.070312 Z M 147.757812 156.410156 C 148.582031 153.332031 151.742188 151.503906 154.820312 152.324219 C 157.894531 153.144531 159.726562 156.308594 158.902344 159.386719 C 155.417969 172.390625 147.773438 183.421875 137.628906 191.203125 C 131.542969 195.875 124.558594 199.371094 117.03125 201.417969 L 117.03125 125.273438 C 117.03125 122.082031 119.621094 119.5 122.808594 119.5 C 125.996094 119.5 128.585938 122.082031 128.585938 125.273438 L 128.585938 183.539062 C 129.28125 183.058594 129.964844 182.558594 130.640625 182.042969 C 138.796875 175.785156 144.949219 166.898438 147.757812 156.410156 Z M 107.195312 203.222656 C 105.289062 203.410156 103.363281 203.503906 101.417969 203.503906 C 99.484375 203.503906 97.558594 203.410156 95.644531 203.21875 L 95.644531 143.988281 C 95.644531 140.800781 98.230469 138.210938 101.417969 138.210938 C 104.609375 138.210938 107.195312 140.800781 107.195312 143.988281 Z M 85.804688 201.40625 C 83.378906 200.746094 80.992188 199.929688 78.664062 198.960938 C 71.476562 195.984375 64.894531 191.628906 59.332031 186.070312 C 57.082031 183.816406 57.082031 180.160156 59.332031 177.90625 C 61.589844 175.652344 65.246094 175.652344 67.5 177.90625 C 69.597656 180.003906 71.863281 181.882812 74.253906 183.535156 L 74.253906 156.824219 C 74.253906 153.632812 76.839844 151.046875 80.03125 151.046875 C 83.21875 151.046875 85.804688 153.632812 85.804688 156.824219 Z M 151.21875 94.1875 C 138.476562 81.445312 120.867188 73.5625 101.417969 73.5625 C 81.972656 73.5625 64.363281 81.445312 51.621094 94.1875 C 38.875 106.933594 30.992188 124.542969 30.992188 143.988281 C 30.992188 163.4375 38.875 181.042969 51.621094 193.789062 C 64.363281 206.53125 81.972656 214.410156 101.417969 214.410156 C 106.035156 214.410156 110.507812 213.980469 114.8125 213.152344 C 119.265625 212.292969 123.5625 211.023438 127.648438 209.378906 L 127.652344 209.382812 C 129.246094 208.746094 131.109375 208.828125 132.703125 209.761719 L 152.421875 221.296875 L 149.394531 198.832031 C 149.164062 197.109375 149.710938 195.304688 151.039062 193.984375 C 157.585938 187.484375 162.867188 179.703125 166.46875 171.042969 C 169.933594 162.734375 171.84375 153.59375 171.84375 143.988281 C 171.84375 124.542969 163.964844 106.933594 151.21875 94.1875 Z M 151.21875 94.1875 " fill-opacity="1" fill-rule="evenodd"/></g><g fill="#ff3131" fill-opacity="1"><g transform="translate(207.134226, 177.383185)"><g><path d="M 27.640625 0 L 14.046875 0 L 14.046875 -39.203125 L 1.75 -39.203125 L 1.75 -50.328125 L 39.890625 -50.328125 L 39.890625 -39.203125 L 27.640625 -39.203125 Z M 27.640625 0 "/></g></g></g><g fill="#0967aa" fill-opacity="1"><g transform="translate(248.784412, 177.383185)"><g><path d="M 48.15625 -26.234375 C 48.15625 -17.828125 45.84375 -11.351562 41.21875 -6.8125 C 36.59375 -2.269531 30.09375 0 21.71875 0 L 5.4375 0 L 5.4375 -50.328125 L 22.859375 -50.328125 C 30.929688 -50.328125 37.164062 -48.257812 41.5625 -44.125 C 45.957031 -40 48.15625 -34.035156 48.15625 -26.234375 Z M 34.046875 -25.75 C 34.046875 -30.363281 33.132812 -33.78125 31.3125 -36 C 29.488281 -38.226562 26.71875 -39.34375 23 -39.34375 L 19.03125 -39.34375 L 19.03125 -11.15625 L 22.0625 -11.15625 C 26.195312 -11.15625 29.226562 -12.351562 31.15625 -14.75 C 33.082031 -17.144531 34.046875 -20.8125 34.046875 -25.75 Z M 34.046875 -25.75 "/></g></g></g><g fill="#ff3131" fill-opacity="1"><g transform="translate(300.526248, 177.383185)"><g><path d="M 27.640625 0 L 14.046875 0 L 14.046875 -39.203125 L 1.75 -39.203125 L 1.75 -50.328125 L 39.890625 -50.328125 L 39.890625 -39.203125 L 27.640625 -39.203125 Z M 27.640625 0 "/></g></g></g><g fill="#0967aa" fill-opacity="1"><g transform="translate(342.176434, 177.383185)"><g><path d="M 48.234375 -50.328125 L 48.234375 -20.03125 C 48.234375 -13.445312 46.367188 -8.347656 42.640625 -4.734375 C 38.910156 -1.117188 33.53125 0.6875 26.5 0.6875 C 19.644531 0.6875 14.375 -1.066406 10.6875 -4.578125 C 7 -8.085938 5.15625 -13.132812 5.15625 -19.71875 L 5.15625 -50.328125 L 18.828125 -50.328125 L 18.828125 -20.796875 C 18.828125 -17.234375 19.492188 -14.648438 20.828125 -13.046875 C 22.160156 -11.441406 24.125 -10.640625 26.71875 -10.640625 C 29.488281 -10.640625 31.5 -11.4375 32.75 -13.03125 C 34 -14.625 34.625 -17.234375 34.625 -20.859375 L 34.625 -50.328125 Z M 48.234375 -50.328125 "/></g></g></g><g fill="#000000" fill-opacity="1"><g transform="translate(395.541201, 177.383185)"><g/></g></g><g fill="#ff3131" fill-opacity="1"><g transform="translate(413.865512, 177.383185)"><g><path d="M 18.828125 0 L 5.4375 0 L 5.4375 -50.328125 L 35.1875 -50.328125 L 35.1875 -39.421875 L 18.828125 -39.421875 L 18.828125 -29.8125 L 33.90625 -29.8125 L 33.90625 -18.90625 L 18.828125 -18.90625 Z M 18.828125 0 "/></g></g></g><g fill="#0967aa" fill-opacity="1"><g transform="translate(451.871492, 177.383185)"><g><path d="M 5.4375 0 L 5.4375 -50.328125 L 19.109375 -50.328125 L 19.109375 0 Z M 5.4375 0 "/></g></g></g><g fill="#ff3131" fill-opacity="1"><g transform="translate(476.421938, 177.383185)"><g><path d="M 53.359375 0 L 35.53125 0 L 17.140625 -35.453125 L 16.828125 -35.453125 C 17.265625 -29.878906 17.484375 -25.625 17.484375 -22.6875 L 17.484375 0 L 5.4375 0 L 5.4375 -50.328125 L 23.203125 -50.328125 L 41.515625 -15.359375 L 41.71875 -15.359375 C 41.394531 -20.421875 41.234375 -24.492188 41.234375 -27.578125 L 41.234375 -50.328125 L 53.359375 -50.328125 Z M 53.359375 0 "/></g></g></g><g fill="#0967aa" fill-opacity="1"><g transform="translate(535.216121, 177.383185)"><g><path d="M 48.15625 -26.234375 C 48.15625 -17.828125 45.84375 -11.351562 41.21875 -6.8125 C 36.59375 -2.269531 30.09375 0 21.71875 0 L 5.4375 0 L 5.4375 -50.328125 L 22.859375 -50.328125 C 30.929688 -50.328125 37.164062 -48.257812 41.5625 -44.125 C 45.957031 -40 48.15625 -34.035156 48.15625 -26.234375 Z M 34.046875 -25.75 C 34.046875 -30.363281 33.132812 -33.78125 31.3125 -36 C 29.488281 -38.226562 26.71875 -39.34375 23 -39.34375 L 19.03125 -39.34375 L 19.03125 -11.15625 L 22.0625 -11.15625 C 26.195312 -11.15625 29.226562 -12.351562 31.15625 -14.75 C 33.082031 -17.144531 34.046875 -20.8125 34.046875 -25.75 Z M 34.046875 -25.75 "/></g></g></g></svg>