<svg xmlns="http://www.w3.org/2000/svg" xmlns:xlink="http://www.w3.org/1999/xlink" width="500" zoomAndPan="magnify" viewBox="0 0 375 374.999991" height="500" preserveAspectRatio="xMidYMid meet" version="1.0"><defs><g/><clipPath id="d41c7026f0"><path d="M 71.152344 14.957031 L 303.652344 14.957031 L 303.652344 264.707031 L 71.152344 264.707031 Z M 71.152344 14.957031 " clip-rule="nonzero"/></clipPath></defs><g clip-path="url(#d41c7026f0)"><path fill="#0967aa" d="M 187.492188 14.960938 C 219.621094 14.960938 248.707031 27.984375 269.757812 49.035156 C 290.816406 70.089844 303.839844 99.175781 303.839844 131.300781 C 303.839844 147.109375 300.664062 162.195312 294.933594 175.980469 C 289.515625 188.976562 281.804688 200.78125 272.3125 210.898438 L 278.316406 255.4375 C 278.917969 259.914062 275.78125 264.027344 271.304688 264.625 C 269.300781 264.898438 267.371094 264.414062 265.789062 263.398438 L 227.027344 240.726562 C 221.386719 242.769531 215.554688 244.382812 209.574219 245.535156 C 202.378906 246.921875 194.996094 247.648438 187.492188 247.648438 C 155.367188 247.648438 126.28125 234.625 105.226562 213.566406 C 84.171875 192.515625 71.152344 163.429688 71.152344 131.300781 C 71.152344 99.175781 84.171875 70.089844 105.226562 49.035156 C 126.28125 27.984375 155.367188 14.960938 187.492188 14.960938 Z M 124.875 158.054688 C 126.640625 162.214844 124.707031 167.011719 120.546875 168.785156 C 116.394531 170.546875 111.59375 168.617188 109.828125 164.457031 C 105.558594 154.472656 103.304688 143.820312 103.074219 133.105469 C 102.84375 122.414062 104.636719 111.6875 108.472656 101.519531 C 110.0625 97.296875 114.777344 95.15625 119.003906 96.75 C 123.230469 98.339844 125.363281 103.058594 123.773438 107.285156 C 120.667969 115.515625 119.214844 124.179688 119.40625 132.789062 C 119.589844 141.375 121.414062 149.957031 124.875 158.054688 Z M 139.355469 83.164062 C 136.15625 86.367188 130.964844 86.367188 127.765625 83.164062 C 124.5625 79.964844 124.5625 74.773438 127.765625 71.574219 C 141.257812 58.078125 158.480469 49.949219 176.480469 47.582031 C 194.453125 45.214844 213.179688 48.617188 229.726562 58.175781 C 229.882812 58.261719 230.027344 58.355469 230.171875 58.445312 C 239.699219 64.03125 247.933594 71.347656 254.503906 79.90625 C 261.195312 88.621094 266.175781 98.640625 269.078125 109.449219 C 270.242188 113.8125 267.648438 118.300781 263.28125 119.472656 C 258.914062 120.636719 254.421875 118.042969 253.257812 113.675781 C 250.921875 104.945312 246.894531 96.859375 241.503906 89.832031 C 236.199219 82.917969 229.582031 77.023438 221.964844 72.558594 C 221.820312 72.484375 221.675781 72.410156 221.53125 72.324219 C 208.183594 64.617188 193.082031 61.878906 178.59375 63.78125 C 164.140625 65.683594 150.269531 72.253906 139.355469 83.164062 Z M 253.257812 148.933594 C 254.429688 144.566406 258.914062 141.96875 263.28125 143.136719 C 267.648438 144.300781 270.242188 148.789062 269.078125 153.160156 C 264.128906 171.617188 253.28125 187.269531 238.886719 198.3125 C 230.246094 204.945312 220.332031 209.90625 209.648438 212.8125 L 209.648438 104.742188 C 209.648438 100.214844 213.324219 96.546875 217.851562 96.546875 C 222.371094 96.546875 226.046875 100.214844 226.046875 104.742188 L 226.046875 187.433594 C 227.039062 186.753906 228.007812 186.046875 228.964844 185.3125 C 240.539062 176.429688 249.273438 163.816406 253.257812 148.933594 Z M 195.691406 215.371094 C 192.988281 215.636719 190.253906 215.769531 187.492188 215.769531 C 184.746094 215.769531 182.011719 215.636719 179.296875 215.367188 L 179.296875 131.300781 C 179.296875 126.777344 182.96875 123.105469 187.492188 123.105469 C 192.019531 123.105469 195.691406 126.777344 195.691406 131.300781 Z M 165.332031 212.792969 C 161.890625 211.855469 158.503906 210.695312 155.199219 209.324219 C 144.996094 205.101562 135.652344 198.917969 127.765625 191.027344 C 124.570312 187.828125 124.570312 182.644531 127.765625 179.441406 C 130.964844 176.242188 136.15625 176.242188 139.355469 179.441406 C 142.332031 182.417969 145.542969 185.082031 148.941406 187.429688 L 148.941406 149.519531 C 148.941406 144.992188 152.609375 141.320312 157.136719 141.320312 C 161.664062 141.320312 165.332031 144.992188 165.332031 149.519531 Z M 258.171875 60.625 C 240.085938 42.539062 215.09375 31.351562 187.492188 31.351562 C 159.894531 31.351562 134.902344 42.539062 116.816406 60.625 C 98.730469 78.714844 87.542969 103.703125 87.542969 131.300781 C 87.542969 158.902344 98.730469 183.894531 116.816406 201.980469 C 134.902344 220.066406 159.894531 231.25 187.492188 231.25 C 194.042969 231.25 200.394531 230.640625 206.5 229.460938 C 212.820312 228.246094 218.917969 226.441406 224.71875 224.109375 L 224.726562 224.117188 C 226.988281 223.210938 229.628906 223.328125 231.894531 224.652344 L 259.878906 241.019531 L 255.582031 209.136719 C 255.253906 206.691406 256.03125 204.132812 257.917969 202.257812 C 267.210938 193.035156 274.699219 181.992188 279.816406 169.699219 C 284.730469 157.90625 287.441406 144.933594 287.441406 131.300781 C 287.441406 103.703125 276.257812 78.714844 258.171875 60.625 Z M 258.171875 60.625 " fill-opacity="1" fill-rule="evenodd"/></g><g fill="#ff3131" fill-opacity="1"><g transform="translate(14.431621, 340.750098)"><g><path d="M 25.1875 0 L 12.796875 0 L 12.796875 -35.71875 L 1.59375 -35.71875 L 1.59375 -45.859375 L 36.34375 -45.859375 L 36.34375 -35.71875 L 25.1875 -35.71875 Z M 25.1875 0 "/></g></g></g><g fill="#0967aa" fill-opacity="1"><g transform="translate(52.38378, 340.750098)"><g><path d="M 43.875 -23.90625 C 43.875 -16.25 41.765625 -10.347656 37.546875 -6.203125 C 33.335938 -2.066406 27.421875 0 19.796875 0 L 4.953125 0 L 4.953125 -45.859375 L 20.828125 -45.859375 C 28.179688 -45.859375 33.859375 -43.972656 37.859375 -40.203125 C 41.867188 -36.441406 43.875 -31.007812 43.875 -23.90625 Z M 31.015625 -23.453125 C 31.015625 -27.660156 30.179688 -30.773438 28.515625 -32.796875 C 26.859375 -34.828125 24.335938 -35.84375 20.953125 -35.84375 L 17.34375 -35.84375 L 17.34375 -10.15625 L 20.109375 -10.15625 C 23.867188 -10.15625 26.625 -11.25 28.375 -13.4375 C 30.132812 -15.625 31.015625 -18.960938 31.015625 -23.453125 Z M 31.015625 -23.453125 "/></g></g></g><g fill="#ff3131" fill-opacity="1"><g transform="translate(99.521497, 340.750098)"><g><path d="M 25.1875 0 L 12.796875 0 L 12.796875 -35.71875 L 1.59375 -35.71875 L 1.59375 -45.859375 L 36.34375 -45.859375 L 36.34375 -35.71875 L 25.1875 -35.71875 Z M 25.1875 0 "/></g></g></g><g fill="#0967aa" fill-opacity="1"><g transform="translate(137.473656, 340.750098)"><g><path d="M 43.9375 -45.859375 L 43.9375 -18.25 C 43.9375 -12.25 42.238281 -7.601562 38.84375 -4.3125 C 35.445312 -1.019531 30.550781 0.625 24.15625 0.625 C 17.894531 0.625 13.085938 -0.972656 9.734375 -4.171875 C 6.378906 -7.367188 4.703125 -11.96875 4.703125 -17.96875 L 4.703125 -45.859375 L 17.15625 -45.859375 L 17.15625 -18.9375 C 17.15625 -15.695312 17.757812 -13.34375 18.96875 -11.875 C 20.1875 -10.414062 21.976562 -9.6875 24.34375 -9.6875 C 26.875 -9.6875 28.707031 -10.410156 29.84375 -11.859375 C 30.976562 -13.316406 31.546875 -15.695312 31.546875 -19 L 31.546875 -45.859375 Z M 43.9375 -45.859375 "/></g></g></g><g fill="#000000" fill-opacity="1"><g transform="translate(186.092914, 340.750098)"><g/></g></g><g fill="#ff3131" fill-opacity="1"><g transform="translate(202.78495, 340.750098)"><g><path d="M 17.15625 0 L 4.953125 0 L 4.953125 -45.859375 L 32.046875 -45.859375 L 32.046875 -35.90625 L 17.15625 -35.90625 L 17.15625 -27.15625 L 30.890625 -27.15625 L 30.890625 -17.21875 L 17.15625 -17.21875 Z M 17.15625 0 "/></g></g></g><g fill="#0967aa" fill-opacity="1"><g transform="translate(237.428332, 340.750098)"><g><path d="M 4.953125 0 L 4.953125 -45.859375 L 17.40625 -45.859375 L 17.40625 0 Z M 4.953125 0 "/></g></g></g><g fill="#ff3131" fill-opacity="1"><g transform="translate(259.799619, 340.750098)"><g><path d="M 48.609375 0 L 32.375 0 L 15.625 -32.3125 L 15.34375 -32.3125 C 15.738281 -27.226562 15.9375 -23.347656 15.9375 -20.671875 L 15.9375 0 L 4.953125 0 L 4.953125 -45.859375 L 21.140625 -45.859375 L 37.828125 -13.984375 L 38.015625 -13.984375 C 37.722656 -18.609375 37.578125 -22.320312 37.578125 -25.125 L 37.578125 -45.859375 L 48.609375 -45.859375 Z M 48.609375 0 "/></g></g></g><g fill="#0967aa" fill-opacity="1"><g transform="translate(313.382042, 340.750098)"><g><path d="M 43.875 -23.90625 C 43.875 -16.25 41.765625 -10.347656 37.546875 -6.203125 C 33.335938 -2.066406 27.421875 0 19.796875 0 L 4.953125 0 L 4.953125 -45.859375 L 20.828125 -45.859375 C 28.179688 -45.859375 33.859375 -43.972656 37.859375 -40.203125 C 41.867188 -36.441406 43.875 -31.007812 43.875 -23.90625 Z M 31.015625 -23.453125 C 31.015625 -27.660156 30.179688 -30.773438 28.515625 -32.796875 C 26.859375 -34.828125 24.335938 -35.84375 20.953125 -35.84375 L 17.34375 -35.84375 L 17.34375 -10.15625 L 20.109375 -10.15625 C 23.867188 -10.15625 26.625 -11.25 28.375 -13.4375 C 30.132812 -15.625 31.015625 -18.960938 31.015625 -23.453125 Z M 31.015625 -23.453125 "/></g></g></g></svg>